<svg xmlns="http://www.w3.org/2000/svg" viewBox="0 0 900 300">
 <defs>
  <linearGradient id="plymouthLogoGradient" x1="0" y1="0" x2="1" y2="1">
   <stop offset="0" stop-color="#42A5F5"/><stop offset=".48" stop-color="#008CFF"/><stop offset="1" stop-color="#00BCD4"/>
  </linearGradient>
 </defs>
 <g transform="translate(358 -4) scale(.36)" fill="url(#plymouthLogoGradient)">
  <path d="M76 112h250c12 0 20 10 15 21l-18 38H230l-38 225-58-83 25-142H95z"/>
  <path d="M224 177h88c70 0 112 31 112 88 0 50-35 79-78 88l62 34c-31 44-82 72-140 72-34 0-66-9-94-25l22-48c22 12 47 19 73 19 32 0 62-11 83-29l-88-49 18-43h34c34 0 52-10 52-31 0-20-17-29-52-29h-102z"/>
  <path fill="#00BCD4" d="M402 74l7 21 21 7-21 7-7 21-7-21-21-7 21-7z"/>
 </g>
 <text x="450" y="252" text-anchor="middle" font-family="DejaVu Sans, sans-serif" font-size="54" font-weight="700" fill="#FFFFFF">Tech<tspan fill="#42A5F5">Refreshing</tspan> Linux</text>
</svg>
